<svg blocklyprop="blocklypropproject" xmlns="http://www.w3.org/2000/svg" xmlns:html="http://www.w3.org/1999/xhtml" xmlns:xlink="http://www.w3.org/1999/xlink" version="1.1" class="blocklySvg"><style>.blocklySvg { background-color: #fff; overflow: auto; width:1356px; height:694px;} .blocklyWidgetDiv {display: none; position: absolute; z-index: 999;} .blocklyPathLight { fill: none; stroke-linecap: round; stroke-width: 2;} .blocklyDisabled>.blocklyPath { fill-opacity: .5; stroke-opacity: .5;} .blocklyDisabled>.blocklyPathLight, .blocklyDisabled>.blocklyPathDark {display: none;} .blocklyText {cursor: default; fill: #fff; font-family: sans-serif; font-size: 11pt;} .blocklyNonEditableText>text { pointer-events: none;} .blocklyNonEditableText>rect, .blocklyEditableText>rect {fill: #fff; fill-opacity: .6;} .blocklyNonEditableText>text, .blocklyEditableText>text {fill: #000;} .blocklyBubbleText {fill: #000;} .blocklySvg text {user-select: none; -moz-user-select: none; -webkit-user-select: none; cursor: inherit;} .blocklyHidden {display: none;} .blocklyFieldDropdown:not(.blocklyHidden) {display: block;} .bkginfo {cursor: default; fill: rgba(0, 0, 0, 0.3); font-family: sans-serif; font-size: 10pt;}</style><g class="blocklyBlockCanvas" transform="translate(280,-112) scale(1)"><g data-id="zPo^n=3XKj]$^b_a|eJe" class="blocklyDraggable" transform="translate(-36,156)"><path class="blocklyPathDark" transform="translate(1,1)" fill="#2e1e7a" d="m 0,8 A 8,8 0 0,1 8,0 H 15 l 6,4 3,0 6,-4 H 304 v 25 H 29.5 l -6,4 -3,0 -6,-4 H 0 z
"></path><path class="blocklyPath" fill="#392699" d="m 0,8 A 8,8 0 0,1 8,0 H 15 l 6,4 3,0 6,-4 H 304 v 25 H 29.5 l -6,4 -3,0 -6,-4 H 0 z
"></path><path class="blocklyPathLight" stroke="#7467b8" d="m 0.5,7.5 A 7.5,7.5 0 0,1 8,0.5 H 15 l 6,4 3,0 6,-4 H 303.5 M 303.5,0.5 M 0.5,24.5 V 8
"></path><text class="blocklyText" y="12.5" transform="translate(10,5)">array initialize</text><g class="blocklyEditableText" style="cursor: text;" transform="translate(125,5)"><rect rx="4" ry="4" x="-5" y="0" height="16" width="32"></rect><text class="blocklyText" y="12.5">list</text></g><text class="blocklyText" y="12.5" transform="translate(157,5)">with</text><g class="blocklyEditableText" style="cursor: text;" transform="translate(198,5)"><rect rx="4" ry="4" x="-5" y="0" height="16" width="28"></rect><text class="blocklyText" y="12.5">10</text></g><text class="blocklyText" y="12.5" transform="translate(226,5)">elements</text><g data-id="Z|d2!wI}wvTy|zYPcsGk" class="blocklyDraggable" transform="translate(0,26)"><path class="blocklyPathDark" transform="translate(1,1)" fill="#2e1e7a" d="m 0,0 H 15 l 6,4 3,0 6,-4 H 391 v 25 H 29.5 l -6,4 -3,0 -6,-4 H 0 z
"></path><path class="blocklyPath" fill="#392699" d="m 0,0 H 15 l 6,4 3,0 6,-4 H 391 v 25 H 29.5 l -6,4 -3,0 -6,-4 H 0 z
"></path><path class="blocklyPathLight" stroke="#7467b8" d="m 0.5,0.5 H 15 l 6,4 3,0 6,-4 H 390.5 M 390.5,0.5 M 0.5,24.5 V 0.5
"></path><text class="blocklyText" y="12.5" transform="translate(10,5)">array fill</text><g class="blocklyEditableText" style="cursor: default;" transform="translate(81,5)"><rect rx="4" ry="4" x="-5" y="0" height="16" width="44"></rect><text class="blocklyText" y="12.5" text-anchor="start" x="0">list<tspan style="fill: rgb(57, 38, 153);"> ▾</tspan></text></g><text class="blocklyText" y="12.5" transform="translate(125,5)">with values</text><g class="blocklyEditableText" style="cursor: text;" transform="translate(219,5)"><rect rx="4" ry="4" x="-5" y="0" height="16" width="172"></rect><text class="blocklyText" y="12.5">10,4,5,9,10,45,5,4,6,7</text></g><g data-id="C_glAM4f-Yht=]97l-ZW" class="blocklyDraggable" transform="translate(0,26)"><path class="blocklyPathDark" transform="translate(1,1)" fill="#1e547a" d="m 0,0 H 15 l 6,4 3,0 6,-4 H 68 H 364 v 36 H 68 l -6,4 -3,0 -6,-4 h -7 a 8,8 0 0,0 -8,8 v 266 a 8,8 0 0,0 8,8 H 68 v 10 H 29.5 l -6,4 -3,0 -6,-4 H 0 z
M 175,5 h -31 v 5 c 0,10 -8,-8 -8,7.5 s 8,-2.5 8,7.5 v 7 h 31 z M 274,5 h -31 v 5 c 0,10 -8,-8 -8,7.5 s 8,-2.5 8,7.5 v 7 h 31 z M 354,5 h -36 v 5 c 0,10 -8,-8 -8,7.5 s 8,-2.5 8,7.5 v 7 h 36 z"></path><path class="blocklyPath" fill="#266999" d="m 0,0 H 15 l 6,4 3,0 6,-4 H 68 H 364 v 36 H 68 l -6,4 -3,0 -6,-4 h -7 a 8,8 0 0,0 -8,8 v 266 a 8,8 0 0,0 8,8 H 68 v 10 H 29.5 l -6,4 -3,0 -6,-4 H 0 z
M 175,5 h -31 v 5 c 0,10 -8,-8 -8,7.5 s 8,-2.5 8,7.5 v 7 h 31 z M 274,5 h -31 v 5 c 0,10 -8,-8 -8,7.5 s 8,-2.5 8,7.5 v 7 h 31 z M 354,5 h -36 v 5 c 0,10 -8,-8 -8,7.5 s 8,-2.5 8,7.5 v 7 h 36 z"></path><path class="blocklyPathLight" stroke="#6796b8" d="m 0.5,0.5 H 15 l 6,4 3,0 6,-4 H 67.5 M 67.5,0.5 H 363.5 M 67.5,36.5 M 39.98959235991435,316.01040764008565 a 8.5,8.5 0 0,0 6.0104076400856545,2.4895923599143455 H 67.5 M 0.5,327.5 V 0.5
M 175.5,5.5 v 27 h -31 M 138.9,24.3 l 3.68,-2.1 M 274.5,5.5 v 27 h -31 M 237.9,24.3 l 3.68,-2.1 M 354.5,5.5 v 27 h -36 M 312.9,24.3 l 3.68,-2.1"></path><text class="blocklyText" y="12.5" transform="translate(10,10)">repeat</text><g class="blocklyEditableText" style="cursor: default;" transform="translate(68,10)"><rect rx="4" ry="4" x="-5" y="0" height="16" width="26"></rect><text class="blocklyText" y="12.5" text-anchor="start" x="0">j<tspan style="fill: rgb(38, 105, 153);"> ▾</tspan></text></g><text class="blocklyText" y="12.5" transform="translate(94,10)">from</text><g class="blocklyEditableText" style="cursor: default;" transform="translate(185,10)"><rect rx="4" ry="4" x="-5" y="0" height="16" width="52"></rect><text class="blocklyText" y="12.5" text-anchor="start" x="0">thru<tspan style="fill: rgb(38, 105, 153);"> ▾</tspan></text></g><text class="blocklyText" y="12.5" transform="translate(284,10)">by</text><text class="blocklyText" y="12.5" transform="translate(10,41)">do</text><g data-id="`,qJ3tq{*!XsGDS/9ju?" class="blocklyDraggable" transform="translate(145,6)"><path class="blocklyPathDark" transform="translate(1,1)" fill="#1e547a" d="m 0,0 H 29 v 25 H 0 V 20 c 0,-10 -8,8 -8,-7.5 s 8,2.5 8,-7.5 z
"></path><path class="blocklyPath" fill="#266999" d="m 0,0 H 29 v 25 H 0 V 20 c 0,-10 -8,8 -8,-7.5 s 8,2.5 8,-7.5 z
"></path><path class="blocklyPathLight" stroke="#6796b8" d="m 0.5,0.5 H 28.5 M 28.5,0.5 M 0.5,24.5 V 18.5 m -7.36,-0.5 q -1.52,-5.5 0,-11 m 7.36,1 V 0.5 H 1
"></path><text class="blocklyText" y="12.5" style="display: none;"></text><text class="blocklyText" y="12.5" style="display: none;"></text><g class="blocklyEditableText" style="cursor: text;" transform="translate(10,5)"><rect rx="4" ry="4" x="-5" y="0" height="16" width="19"></rect><text class="blocklyText" y="12.5">9</text></g></g><g data-id="ri*moAI60*?~KgaKnCWJ" class="blocklyDraggable" transform="translate(244,6)"><path class="blocklyPathDark" transform="translate(1,1)" fill="#1e547a" d="m 0,0 H 29 v 25 H 0 V 20 c 0,-10 -8,8 -8,-7.5 s 8,2.5 8,-7.5 z
"></path><path class="blocklyPath" fill="#266999" d="m 0,0 H 29 v 25 H 0 V 20 c 0,-10 -8,8 -8,-7.5 s 8,2.5 8,-7.5 z
"></path><path class="blocklyPathLight" stroke="#6796b8" d="m 0.5,0.5 H 28.5 M 28.5,0.5 M 0.5,24.5 V 18.5 m -7.36,-0.5 q -1.52,-5.5 0,-11 m 7.36,1 V 0.5 H 1
"></path><text class="blocklyText" y="12.5" style="display: none;"></text><text class="blocklyText" y="12.5" style="display: none;"></text><g class="blocklyEditableText" style="cursor: text;" transform="translate(10,5)"><rect rx="4" ry="4" x="-5" y="0" height="16" width="19"></rect><text class="blocklyText" y="12.5">0</text></g></g><g data-id="#q{;XXnuV^D$uJJ9xry9" class="blocklyDraggable" transform="translate(319,6)"><path class="blocklyPathDark" transform="translate(1,1)" fill="#1e547a" d="m 0,0 H 34 v 25 H 0 V 20 c 0,-10 -8,8 -8,-7.5 s 8,2.5 8,-7.5 z
"></path><path class="blocklyPath" fill="#266999" d="m 0,0 H 34 v 25 H 0 V 20 c 0,-10 -8,8 -8,-7.5 s 8,2.5 8,-7.5 z
"></path><path class="blocklyPathLight" stroke="#6796b8" d="m 0.5,0.5 H 33.5 M 33.5,0.5 M 0.5,24.5 V 18.5 m -7.36,-0.5 q -1.52,-5.5 0,-11 m 7.36,1 V 0.5 H 1
"></path><text class="blocklyText" y="12.5" style="display: none;"></text><text class="blocklyText" y="12.5" style="display: none;"></text><g class="blocklyEditableText" style="cursor: text;" transform="translate(10,5)"><rect rx="4" ry="4" x="-5" y="0" height="16" width="24"></rect><text class="blocklyText" y="12.5">-1</text></g></g><g data-id="xI[;cUzen45)EvmZXpDU" class="blocklyDraggable" transform="translate(39,37)"><path class="blocklyPathDark" transform="translate(1,1)" fill="#1e547a" d="m 0,8 A 8,8 0 0,1 8,0 H 15 l 6,4 3,0 6,-4 H 68 H 540 v 47 H 68 l -6,4 -3,0 -6,-4 h -7 a 8,8 0 0,0 -8,8 v 204 a 8,8 0 0,0 8,8 H 68 v 10 H 29.5 l -6,4 -3,0 -6,-4 H 8 a 8,8 0 0,1 -8,-8 z
M 204,5 h -31 v 5 c 0,10 -8,-8 -8,7.5 s 8,-2.5 8,7.5 v 7 h 31 z M 455,5 h -183 v 5 c 0,10 -8,-8 -8,7.5 s 8,-2.5 8,7.5 v 18 h 183 z M 530,5 h -31 v 5 c 0,10 -8,-8 -8,7.5 s 8,-2.5 8,7.5 v 7 h 31 z"></path><path class="blocklyPath" fill="#266999" d="m 0,8 A 8,8 0 0,1 8,0 H 15 l 6,4 3,0 6,-4 H 68 H 540 v 47 H 68 l -6,4 -3,0 -6,-4 h -7 a 8,8 0 0,0 -8,8 v 204 a 8,8 0 0,0 8,8 H 68 v 10 H 29.5 l -6,4 -3,0 -6,-4 H 8 a 8,8 0 0,1 -8,-8 z
M 204,5 h -31 v 5 c 0,10 -8,-8 -8,7.5 s 8,-2.5 8,7.5 v 7 h 31 z M 455,5 h -183 v 5 c 0,10 -8,-8 -8,7.5 s 8,-2.5 8,7.5 v 18 h 183 z M 530,5 h -31 v 5 c 0,10 -8,-8 -8,7.5 s 8,-2.5 8,7.5 v 7 h 31 z"></path><path class="blocklyPathLight" stroke="#6796b8" d="m 0.5,7.5 A 7.5,7.5 0 0,1 8,0.5 H 15 l 6,4 3,0 6,-4 H 67.5 M 67.5,0.5 H 539.5 M 67.5,47.5 M 39.98959235991435,265.01040764008565 a 8.5,8.5 0 0,0 6.0104076400856545,2.4895923599143455 H 67.5 M 2.6966991411008934,274.3033008588991 A 7.5,7.5 0 0,1 0.5,269 V 8
M 204.5,5.5 v 27 h -31 M 167.9,24.3 l 3.68,-2.1 M 455.5,5.5 v 38 h -183 M 266.9,24.3 l 3.68,-2.1 M 530.5,5.5 v 27 h -31 M 493.9,24.3 l 3.68,-2.1"></path><text class="blocklyText" y="12.5" transform="translate(10,10)">repeat</text><g class="blocklyEditableText" style="cursor: default;" transform="translate(68,10)"><rect rx="4" ry="4" x="-5" y="0" height="16" width="55"></rect><text class="blocklyText" y="12.5" text-anchor="start" x="0">item<tspan style="fill: rgb(38, 105, 153);"> ▾</tspan></text></g><text class="blocklyText" y="12.5" transform="translate(123,10)">from</text><g class="blocklyEditableText" style="cursor: default;" transform="translate(214,10)"><rect rx="4" ry="4" x="-5" y="0" height="16" width="52"></rect><text class="blocklyText" y="12.5" text-anchor="start" x="0">thru<tspan style="fill: rgb(38, 105, 153);"> ▾</tspan></text></g><text class="blocklyText" y="12.5" transform="translate(465,10)">by</text><text class="blocklyText" y="12.5" transform="translate(10,52)">do</text><g data-id="EAD{T%Fk;7=XRD6zF_e7" class="blocklyDraggable" transform="translate(174,6)"><path class="blocklyPathDark" transform="translate(1,1)" fill="#1e547a" d="m 0,0 H 29 v 25 H 0 V 20 c 0,-10 -8,8 -8,-7.5 s 8,2.5 8,-7.5 z
"></path><path class="blocklyPath" fill="#266999" d="m 0,0 H 29 v 25 H 0 V 20 c 0,-10 -8,8 -8,-7.5 s 8,2.5 8,-7.5 z
"></path><path class="blocklyPathLight" stroke="#6796b8" d="m 0.5,0.5 H 28.5 M 28.5,0.5 M 0.5,24.5 V 18.5 m -7.36,-0.5 q -1.52,-5.5 0,-11 m 7.36,1 V 0.5 H 1
"></path><text class="blocklyText" y="12.5" style="display: none;"></text><text class="blocklyText" y="12.5" style="display: none;"></text><g class="blocklyEditableText" style="cursor: text;" transform="translate(10,5)"><rect rx="4" ry="4" x="-5" y="0" height="16" width="19"></rect><text class="blocklyText" y="12.5">0</text></g></g><g data-id="BW]NHQf115?ZrU}l?WMF" class="blocklyDraggable" transform="translate(273,6)"><path class="blocklyPathDark" transform="translate(1,1)" fill="#541e7a" d="m 0,0 H 20 H 181 v 36 H 0 V 20 c 0,-10 -8,8 -8,-7.5 s 8,2.5 8,-7.5 z
M 83,5 h -67 v 5 c 0,10 -8,-8 -8,7.5 s 8,-2.5 8,7.5 v 7 h 67 z M 171,5 h -38 v 5 c 0,10 -8,-8 -8,7.5 s 8,-2.5 8,7.5 v 7 h 38 z"></path><path class="blocklyPath" fill="#692699" d="m 0,0 H 20 H 181 v 36 H 0 V 20 c 0,-10 -8,8 -8,-7.5 s 8,2.5 8,-7.5 z
M 83,5 h -67 v 5 c 0,10 -8,-8 -8,7.5 s 8,-2.5 8,7.5 v 7 h 67 z M 171,5 h -38 v 5 c 0,10 -8,-8 -8,7.5 s 8,-2.5 8,7.5 v 7 h 38 z"></path><path class="blocklyPathLight" stroke="#9667b8" d="m 0.5,0.5 H 19.5 M 19.5,0.5 H 180.5 M 0.5,35.5 V 18.5 m -7.36,-0.5 q -1.52,-5.5 0,-11 m 7.36,1 V 0.5 H 1
M 83.5,5.5 v 27 h -67 M 10.9,24.3 l 3.68,-2.1 M 171.5,5.5 v 27 h -38 M 127.9,24.3 l 3.68,-2.1"></path><g class="blocklyEditableText" style="cursor: default;" transform="translate(93,10)"><rect rx="4" ry="4" x="-5" y="0" height="16" width="34"></rect><text class="blocklyText" y="12.5" text-anchor="start" x="0">&lt;<tspan style="fill: rgb(105, 38, 153);"> ▾</tspan></text></g><g data-id="{-X#WRqW_c.n7/X;#/)t" class="blocklyDraggable" transform="translate(134,6)"><path class="blocklyPathDark" transform="translate(1,1)" fill="#2e1e7a" d="m 0,0 H 36 v 25 H 0 V 20 c 0,-10 -8,8 -8,-7.5 s 8,2.5 8,-7.5 z
"></path><path class="blocklyPath" fill="#392699" d="m 0,0 H 36 v 25 H 0 V 20 c 0,-10 -8,8 -8,-7.5 s 8,2.5 8,-7.5 z
"></path><path class="blocklyPathLight" stroke="#7467b8" d="m 0.5,0.5 H 35.5 M 35.5,0.5 M 0.5,24.5 V 18.5 m -7.36,-0.5 q -1.52,-5.5 0,-11 m 7.36,1 V 0.5 H 1
"></path><g class="blocklyEditableText" style="cursor: default;" transform="translate(10,5)"><rect rx="4" ry="4" x="-5" y="0" height="16" width="26"></rect><text class="blocklyText" y="12.5" text-anchor="start" x="0">j<tspan style="fill: rgb(57, 38, 153);"> ▾</tspan></text></g></g><g data-id="l#Wbe6RDH$H$8=],J;PX" class="blocklyDraggable" transform="translate(17,6)"><path class="blocklyPathDark" transform="translate(1,1)" fill="#2e1e7a" d="m 0,0 H 65 v 25 H 0 V 20 c 0,-10 -8,8 -8,-7.5 s 8,2.5 8,-7.5 z
"></path><path class="blocklyPath" fill="#392699" d="m 0,0 H 65 v 25 H 0 V 20 c 0,-10 -8,8 -8,-7.5 s 8,2.5 8,-7.5 z
"></path><path class="blocklyPathLight" stroke="#7467b8" d="m 0.5,0.5 H 64.5 M 64.5,0.5 M 0.5,24.5 V 18.5 m -7.36,-0.5 q -1.52,-5.5 0,-11 m 7.36,1 V 0.5 H 1
"></path><g class="blocklyEditableText" style="cursor: default;" transform="translate(10,5)"><rect rx="4" ry="4" x="-5" y="0" height="16" width="55"></rect><text class="blocklyText" y="12.5" text-anchor="start" x="0">item<tspan style="fill: rgb(57, 38, 153);"> ▾</tspan></text></g></g></g><g data-id="]p?{Q?Gh$Xd|$gJl*@9|" class="blocklyDraggable" transform="translate(500,6)"><path class="blocklyPathDark" transform="translate(1,1)" fill="#1e547a" d="m 0,0 H 29 v 25 H 0 V 20 c 0,-10 -8,8 -8,-7.5 s 8,2.5 8,-7.5 z
"></path><path class="blocklyPath" fill="#266999" d="m 0,0 H 29 v 25 H 0 V 20 c 0,-10 -8,8 -8,-7.5 s 8,2.5 8,-7.5 z
"></path><path class="blocklyPathLight" stroke="#6796b8" d="m 0.5,0.5 H 28.5 M 28.5,0.5 M 0.5,24.5 V 18.5 m -7.36,-0.5 q -1.52,-5.5 0,-11 m 7.36,1 V 0.5 H 1
"></path><text class="blocklyText" y="12.5" style="display: none;"></text><text class="blocklyText" y="12.5" style="display: none;"></text><g class="blocklyEditableText" style="cursor: text;" transform="translate(10,5)"><rect rx="4" ry="4" x="-5" y="0" height="16" width="19"></rect><text class="blocklyText" y="12.5">1</text></g></g><g data-id="B~)G0jkG13LrtUk7HeqU" class="blocklyDraggable" transform="translate(39,48)"><path class="blocklyPathDark" transform="translate(1,1)" fill="#1e547a" d="m 0,8 A 8,8 0 0,1 8,0 H 15 l 6,4 3,0 6,-4 H 68 v 5 c 0,10 -8,-8 -8,7.5 s 8,-2.5 8,7.5 v 38 H 68 l -6,4 -3,0 -6,-4 h -7 a 8,8 0 0,0 -8,8 v 131 a 8,8 0 0,0 8,8 H 68 v 10 H 29.5 l -6,4 -3,0 -6,-4 H 8 a 8,8 0 0,1 -8,-8 z
"></path><path class="blocklyPath" fill="#266999" d="m 0,8 A 8,8 0 0,1 8,0 H 15 l 6,4 3,0 6,-4 H 68 v 5 c 0,10 -8,-8 -8,7.5 s 8,-2.5 8,7.5 v 38 H 68 l -6,4 -3,0 -6,-4 h -7 a 8,8 0 0,0 -8,8 v 131 a 8,8 0 0,0 8,8 H 68 v 10 H 29.5 l -6,4 -3,0 -6,-4 H 8 a 8,8 0 0,1 -8,-8 z
"></path><path class="blocklyPathLight" stroke="#6796b8" d="m 0.5,7.5 A 7.5,7.5 0 0,1 8,0.5 H 15 l 6,4 3,0 6,-4 H 67.5 M 67.5,0.5 M 63,19.3 l 3.68,-2.1 M 67.5,58.5 M 39.98959235991435,203.01040764008565 a 8.5,8.5 0 0,0 6.0104076400856545,2.4895923599143455 H 67.5 M 2.6966991411008934,212.3033008588991 A 7.5,7.5 0 0,1 0.5,207 V 8
"></path><g class="blocklyIconGroup" display="block" transform="translate(10,5)"><rect class="blocklyIconShape" rx="4" ry="4" height="16" width="16"></rect><path class="blocklyIconSymbol" d="m4.203,7.296 0,1.368 -0.92,0.677 -0.11,0.41 0.9,1.559 0.41,0.11 1.043,-0.457 1.187,0.683 0.127,1.134 0.3,0.3 1.8,0 0.3,-0.299 0.127,-1.138 1.185,-0.682 1.046,0.458 0.409,-0.11 0.9,-1.559 -0.11,-0.41 -0.92,-0.677 0,-1.366 0.92,-0.677 0.11,-0.41 -0.9,-1.559 -0.409,-0.109 -1.046,0.458 -1.185,-0.682 -0.127,-1.138 -0.3,-0.299 -1.8,0 -0.3,0.3 -0.126,1.135 -1.187,0.682 -1.043,-0.457 -0.41,0.11 -0.899,1.559 0.108,0.409z"></path><circle class="blocklyIconShape" r="2.7" cx="8" cy="8"></circle></g><text class="blocklyText" y="12.5" transform="translate(37,5)">if</text><text class="blocklyText" y="12.5" transform="translate(10,63)">do</text><g data-id="H+PC|y%PXd;)81_2KL7*" class="blocklyDraggable" transform="translate(69,0)"><path class="blocklyPathDark" transform="translate(1,1)" fill="#541e7a" d="m 0,0 H 20 H 728 v 58 H 0 V 20 c 0,-10 -8,8 -8,-7.5 s 8,2.5 8,-7.5 z
M 274,5 h -258 v 5 c 0,10 -8,-8 -8,7.5 s 8,-2.5 8,7.5 v 18 h 258 z M 718,5 h -394 v 5 c 0,10 -8,-8 -8,7.5 s 8,-2.5 8,7.5 v 29 h 394 z"></path><path class="blocklyPath" fill="#692699" d="m 0,0 H 20 H 728 v 58 H 0 V 20 c 0,-10 -8,8 -8,-7.5 s 8,2.5 8,-7.5 z
M 274,5 h -258 v 5 c 0,10 -8,-8 -8,7.5 s 8,-2.5 8,7.5 v 18 h 258 z M 718,5 h -394 v 5 c 0,10 -8,-8 -8,7.5 s 8,-2.5 8,7.5 v 29 h 394 z"></path><path class="blocklyPathLight" stroke="#9667b8" d="m 0.5,0.5 H 19.5 M 19.5,0.5 H 727.5 M 0.5,57.5 V 18.5 m -7.36,-0.5 q -1.52,-5.5 0,-11 m 7.36,1 V 0.5 H 1
M 274.5,5.5 v 38 h -258 M 10.9,24.3 l 3.68,-2.1 M 718.5,5.5 v 49 h -394 M 318.9,24.3 l 3.68,-2.1"></path><g class="blocklyEditableText" style="cursor: default;" transform="translate(284,10)"><rect rx="4" ry="4" x="-5" y="0" height="16" width="34"></rect><text class="blocklyText" y="12.5" text-anchor="start" x="0">=<tspan style="fill: rgb(105, 38, 153);"> ▾</tspan></text></g><g data-id="[hZ;N*cNTiq5iIo|TyWg" class="blocklyDraggable" transform="translate(17,6)"><path class="blocklyPathDark" transform="translate(1,1)" fill="#2e1e7a" d="m 0,0 H 20 H 256 v 36 H 0 V 20 c 0,-10 -8,8 -8,-7.5 s 8,2.5 8,-7.5 z
M 246,5 h -67 v 5 c 0,10 -8,-8 -8,7.5 s 8,-2.5 8,7.5 v 7 h 67 z"></path><path class="blocklyPath" fill="#392699" d="m 0,0 H 20 H 256 v 36 H 0 V 20 c 0,-10 -8,8 -8,-7.5 s 8,2.5 8,-7.5 z
M 246,5 h -67 v 5 c 0,10 -8,-8 -8,7.5 s 8,-2.5 8,7.5 v 7 h 67 z"></path><path class="blocklyPathLight" stroke="#7467b8" d="m 0.5,0.5 H 19.5 M 19.5,0.5 H 255.5 M 0.5,35.5 V 18.5 m -7.36,-0.5 q -1.52,-5.5 0,-11 m 7.36,1 V 0.5 H 1
M 246.5,5.5 v 27 h -67 M 173.9,24.3 l 3.68,-2.1"></path><text class="blocklyText" y="12.5" transform="translate(10,10)">array</text><g class="blocklyEditableText" style="cursor: default;" transform="translate(59,10)"><rect rx="4" ry="4" x="-5" y="0" height="16" width="44"></rect><text class="blocklyText" y="12.5" text-anchor="start" x="0">list<tspan style="fill: rgb(57, 38, 153);"> ▾</tspan></text></g><text class="blocklyText" y="12.5" transform="translate(103,10)">element</text><g data-id="HaCM51?2]`JIZC4;BY.4" class="blocklyDraggable" transform="translate(180,6)"><path class="blocklyPathDark" transform="translate(1,1)" fill="#2e1e7a" d="m 0,0 H 65 v 25 H 0 V 20 c 0,-10 -8,8 -8,-7.5 s 8,2.5 8,-7.5 z
"></path><path class="blocklyPath" fill="#392699" d="m 0,0 H 65 v 25 H 0 V 20 c 0,-10 -8,8 -8,-7.5 s 8,2.5 8,-7.5 z
"></path><path class="blocklyPathLight" stroke="#7467b8" d="m 0.5,0.5 H 64.5 M 64.5,0.5 M 0.5,24.5 V 18.5 m -7.36,-0.5 q -1.52,-5.5 0,-11 m 7.36,1 V 0.5 H 1
"></path><g class="blocklyEditableText" style="cursor: default;" transform="translate(10,5)"><rect rx="4" ry="4" x="-5" y="0" height="16" width="55"></rect><text class="blocklyText" y="12.5" text-anchor="start" x="0">item<tspan style="fill: rgb(57, 38, 153);"> ▾</tspan></text></g></g></g><g data-id="TkHS_x?Q;BK{l(k8yj^R" class="blocklyDraggable" transform="translate(325,6)"><path class="blocklyPathDark" transform="translate(1,1)" fill="#2e1e7a" d="m 0,0 H 20 H 392 v 47 H 0 V 20 c 0,-10 -8,8 -8,-7.5 s 8,2.5 8,-7.5 z
M 382,5 h -203 v 5 c 0,10 -8,-8 -8,7.5 s 8,-2.5 8,7.5 v 18 h 203 z"></path><path class="blocklyPath" fill="#392699" d="m 0,0 H 20 H 392 v 47 H 0 V 20 c 0,-10 -8,8 -8,-7.5 s 8,2.5 8,-7.5 z
M 382,5 h -203 v 5 c 0,10 -8,-8 -8,7.5 s 8,-2.5 8,7.5 v 18 h 203 z"></path><path class="blocklyPathLight" stroke="#7467b8" d="m 0.5,0.5 H 19.5 M 19.5,0.5 H 391.5 M 0.5,46.5 V 18.5 m -7.36,-0.5 q -1.52,-5.5 0,-11 m 7.36,1 V 0.5 H 1
M 382.5,5.5 v 38 h -203 M 173.9,24.3 l 3.68,-2.1"></path><text class="blocklyText" y="12.5" transform="translate(10,10)">array</text><g class="blocklyEditableText" style="cursor: default;" transform="translate(59,10)"><rect rx="4" ry="4" x="-5" y="0" height="16" width="44"></rect><text class="blocklyText" y="12.5" text-anchor="start" x="0">list<tspan style="fill: rgb(57, 38, 153);"> ▾</tspan></text></g><text class="blocklyText" y="12.5" transform="translate(103,10)">element</text><g data-id="pheXTLm4AZ)bGItpbS!z" class="blocklyDraggable" transform="translate(180,6)"><path class="blocklyPathDark" transform="translate(1,1)" fill="#541e7a" d="m 0,0 H 47 H 201 v 36 H 0 V 20 c 0,-10 -8,8 -8,-7.5 s 8,2.5 8,-7.5 z
M 110,5 h -67 v 5 c 0,10 -8,-8 -8,7.5 s 8,-2.5 8,7.5 v 7 h 67 z M 191,5 h -31 v 5 c 0,10 -8,-8 -8,7.5 s 8,-2.5 8,7.5 v 7 h 31 z"></path><path class="blocklyPath" fill="#692699" d="m 0,0 H 47 H 201 v 36 H 0 V 20 c 0,-10 -8,8 -8,-7.5 s 8,2.5 8,-7.5 z
M 110,5 h -67 v 5 c 0,10 -8,-8 -8,7.5 s 8,-2.5 8,7.5 v 7 h 67 z M 191,5 h -31 v 5 c 0,10 -8,-8 -8,7.5 s 8,-2.5 8,7.5 v 7 h 31 z"></path><path class="blocklyPathLight" stroke="#9667b8" d="m 0.5,0.5 H 46.5 M 46.5,0.5 H 200.5 M 0.5,35.5 V 18.5 m -7.36,-0.5 q -1.52,-5.5 0,-11 m 7.36,1 V 0.5 H 1
M 110.5,5.5 v 27 h -67 M 37.9,24.3 l 3.68,-2.1 M 191.5,5.5 v 27 h -31 M 154.9,24.3 l 3.68,-2.1"></path><g class="blocklyIconGroup" display="block" transform="translate(10,5)"><rect class="blocklyIconShape" rx="4" ry="4" height="16" width="16"></rect><path class="blocklyIconSymbol" d="m4.203,7.296 0,1.368 -0.92,0.677 -0.11,0.41 0.9,1.559 0.41,0.11 1.043,-0.457 1.187,0.683 0.127,1.134 0.3,0.3 1.8,0 0.3,-0.299 0.127,-1.138 1.185,-0.682 1.046,0.458 0.409,-0.11 0.9,-1.559 -0.11,-0.41 -0.92,-0.677 0,-1.366 0.92,-0.677 0.11,-0.41 -0.9,-1.559 -0.409,-0.109 -1.046,0.458 -1.185,-0.682 -0.127,-1.138 -0.3,-0.299 -1.8,0 -0.3,0.3 -0.126,1.135 -1.187,0.682 -1.043,-0.457 -0.41,0.11 -0.899,1.559 0.108,0.409z"></path><circle class="blocklyIconShape" r="2.7" cx="8" cy="8"></circle></g><g class="blocklyEditableText" style="cursor: default;" transform="translate(120,10)"><rect rx="4" ry="4" x="-5" y="0" height="16" width="34"></rect><text class="blocklyText" y="12.5" text-anchor="start" x="0">+<tspan style="fill: rgb(105, 38, 153);"> ▾</tspan></text></g><g data-id="5Z8UsyI|7)OX)b*V+HMZ" class="blocklyDraggable" transform="translate(44,6)"><path class="blocklyPathDark" transform="translate(1,1)" fill="#2e1e7a" d="m 0,0 H 65 v 25 H 0 V 20 c 0,-10 -8,8 -8,-7.5 s 8,2.5 8,-7.5 z
"></path><path class="blocklyPath" fill="#392699" d="m 0,0 H 65 v 25 H 0 V 20 c 0,-10 -8,8 -8,-7.5 s 8,2.5 8,-7.5 z
"></path><path class="blocklyPathLight" stroke="#7467b8" d="m 0.5,0.5 H 64.5 M 64.5,0.5 M 0.5,24.5 V 18.5 m -7.36,-0.5 q -1.52,-5.5 0,-11 m 7.36,1 V 0.5 H 1
"></path><g class="blocklyEditableText" style="cursor: default;" transform="translate(10,5)"><rect rx="4" ry="4" x="-5" y="0" height="16" width="55"></rect><text class="blocklyText" y="12.5" text-anchor="start" x="0">item<tspan style="fill: rgb(57, 38, 153);"> ▾</tspan></text></g></g><g data-id="9u*@3e*c{fm[!z~o;!ZM" class="blocklyDraggable" transform="translate(161,6)"><path class="blocklyPathDark" transform="translate(1,1)" fill="#1e547a" d="m 0,0 H 29 v 25 H 0 V 20 c 0,-10 -8,8 -8,-7.5 s 8,2.5 8,-7.5 z
"></path><path class="blocklyPath" fill="#266999" d="m 0,0 H 29 v 25 H 0 V 20 c 0,-10 -8,8 -8,-7.5 s 8,2.5 8,-7.5 z
"></path><path class="blocklyPathLight" stroke="#6796b8" d="m 0.5,0.5 H 28.5 M 28.5,0.5 M 0.5,24.5 V 18.5 m -7.36,-0.5 q -1.52,-5.5 0,-11 m 7.36,1 V 0.5 H 1
"></path><text class="blocklyText" y="12.5" style="display: none;"></text><text class="blocklyText" y="12.5" style="display: none;"></text><g class="blocklyEditableText" style="cursor: text;" transform="translate(10,5)"><rect rx="4" ry="4" x="-5" y="0" height="16" width="19"></rect><text class="blocklyText" y="12.5">1</text></g></g></g></g></g><g data-id="M{gsIEKBRqbfH(w@@GRQ" class="blocklyDraggable" transform="translate(39,59)"><path class="blocklyPathDark" transform="translate(1,1)" fill="#2e1e7a" d="m 0,8 A 8,8 0 0,1 8,0 H 15 l 6,4 3,0 6,-4 H 89 v 5 c 0,10 -8,-8 -8,7.5 s 8,-2.5 8,7.5 v 16 H 29.5 l -6,4 -3,0 -6,-4 H 0 z
"></path><path class="blocklyPath" fill="#392699" d="m 0,8 A 8,8 0 0,1 8,0 H 15 l 6,4 3,0 6,-4 H 89 v 5 c 0,10 -8,-8 -8,7.5 s 8,-2.5 8,7.5 v 16 H 29.5 l -6,4 -3,0 -6,-4 H 0 z
"></path><path class="blocklyPathLight" stroke="#7467b8" d="m 0.5,7.5 A 7.5,7.5 0 0,1 8,0.5 H 15 l 6,4 3,0 6,-4 H 88.5 M 88.5,0.5 M 84,19.3 l 3.68,-2.1 M 0.5,35.5 V 8
"></path><g class="blocklyEditableText" style="cursor: default;" transform="translate(10,5)"><rect rx="4" ry="4" x="-5" y="0" height="16" width="49"></rect><text class="blocklyText" y="12.5" text-anchor="start" x="0">aux<tspan style="fill: rgb(57, 38, 153);"> ▾</tspan></text></g><text class="blocklyText" y="12.5" transform="translate(59,5)">=</text><g data-id="Ry2gg=p/pPlu4$Xdc=t^" class="blocklyDraggable" transform="translate(0,37)"><path class="blocklyPathDark" transform="translate(1,1)" fill="#2e1e7a" d="m 0,0 H 15 l 6,4 3,0 6,-4 H 40 H 688 v 58 H 29.5 l -6,4 -3,0 -6,-4 H 0 z
M 246,5 h -67 v 5 c 0,10 -8,-8 -8,7.5 s 8,-2.5 8,7.5 v 7 h 67 z M 678,5 h -394 v 5 c 0,10 -8,-8 -8,7.5 s 8,-2.5 8,7.5 v 29 h 394 z"></path><path class="blocklyPath" fill="#392699" d="m 0,0 H 15 l 6,4 3,0 6,-4 H 40 H 688 v 58 H 29.5 l -6,4 -3,0 -6,-4 H 0 z
M 246,5 h -67 v 5 c 0,10 -8,-8 -8,7.5 s 8,-2.5 8,7.5 v 7 h 67 z M 678,5 h -394 v 5 c 0,10 -8,-8 -8,7.5 s 8,-2.5 8,7.5 v 29 h 394 z"></path><path class="blocklyPathLight" stroke="#7467b8" d="m 0.5,0.5 H 15 l 6,4 3,0 6,-4 H 39.5 M 39.5,0.5 H 687.5 M 0.5,57.5 V 0.5
M 246.5,5.5 v 27 h -67 M 173.9,24.3 l 3.68,-2.1 M 678.5,5.5 v 49 h -394 M 278.9,24.3 l 3.68,-2.1"></path><text class="blocklyText" y="12.5" transform="translate(10,10)">array</text><g class="blocklyEditableText" style="cursor: default;" transform="translate(59,10)"><rect rx="4" ry="4" x="-5" y="0" height="16" width="44"></rect><text class="blocklyText" y="12.5" text-anchor="start" x="0">list<tspan style="fill: rgb(57, 38, 153);"> ▾</tspan></text></g><text class="blocklyText" y="12.5" transform="translate(103,10)">element</text><text class="blocklyText" y="12.5" transform="translate(256,10)">=</text><g data-id="3^GU,b4)sXy`f^8;c0E9" class="blocklyDraggable" transform="translate(180,6)"><path class="blocklyPathDark" transform="translate(1,1)" fill="#2e1e7a" d="m 0,0 H 65 v 25 H 0 V 20 c 0,-10 -8,8 -8,-7.5 s 8,2.5 8,-7.5 z
"></path><path class="blocklyPath" fill="#392699" d="m 0,0 H 65 v 25 H 0 V 20 c 0,-10 -8,8 -8,-7.5 s 8,2.5 8,-7.5 z
"></path><path class="blocklyPathLight" stroke="#7467b8" d="m 0.5,0.5 H 64.5 M 64.5,0.5 M 0.5,24.5 V 18.5 m -7.36,-0.5 q -1.52,-5.5 0,-11 m 7.36,1 V 0.5 H 1
"></path><g class="blocklyEditableText" style="cursor: default;" transform="translate(10,5)"><rect rx="4" ry="4" x="-5" y="0" height="16" width="55"></rect><text class="blocklyText" y="12.5" text-anchor="start" x="0">item<tspan style="fill: rgb(57, 38, 153);"> ▾</tspan></text></g></g><g data-id="/hGu?_)Q#omoX_!Tb(o6" class="blocklyDraggable" transform="translate(285,6)"><path class="blocklyPathDark" transform="translate(1,1)" fill="#2e1e7a" d="m 0,0 H 20 H 392 v 47 H 0 V 20 c 0,-10 -8,8 -8,-7.5 s 8,2.5 8,-7.5 z
M 382,5 h -203 v 5 c 0,10 -8,-8 -8,7.5 s 8,-2.5 8,7.5 v 18 h 203 z"></path><path class="blocklyPath" fill="#392699" d="m 0,0 H 20 H 392 v 47 H 0 V 20 c 0,-10 -8,8 -8,-7.5 s 8,2.5 8,-7.5 z
M 382,5 h -203 v 5 c 0,10 -8,-8 -8,7.5 s 8,-2.5 8,7.5 v 18 h 203 z"></path><path class="blocklyPathLight" stroke="#7467b8" d="m 0.5,0.5 H 19.5 M 19.5,0.5 H 391.5 M 0.5,46.5 V 18.5 m -7.36,-0.5 q -1.52,-5.5 0,-11 m 7.36,1 V 0.5 H 1
M 382.5,5.5 v 38 h -203 M 173.9,24.3 l 3.68,-2.1"></path><g data-id="O]Kvn#[^iV0Hgi9CTAj9" class="blocklyDraggable" transform="translate(180,6)"><path class="blocklyPathDark" transform="translate(1,1)" fill="#541e7a" d="m 0,0 H 47 H 201 v 36 H 0 V 20 c 0,-10 -8,8 -8,-7.5 s 8,2.5 8,-7.5 z
M 110,5 h -67 v 5 c 0,10 -8,-8 -8,7.5 s 8,-2.5 8,7.5 v 7 h 67 z M 191,5 h -31 v 5 c 0,10 -8,-8 -8,7.5 s 8,-2.5 8,7.5 v 7 h 31 z"></path><path class="blocklyPath" fill="#692699" d="m 0,0 H 47 H 201 v 36 H 0 V 20 c 0,-10 -8,8 -8,-7.5 s 8,2.5 8,-7.5 z
M 110,5 h -67 v 5 c 0,10 -8,-8 -8,7.5 s 8,-2.5 8,7.5 v 7 h 67 z M 191,5 h -31 v 5 c 0,10 -8,-8 -8,7.5 s 8,-2.5 8,7.5 v 7 h 31 z"></path><path class="blocklyPathLight" stroke="#9667b8" d="m 0.5,0.5 H 46.5 M 46.5,0.5 H 200.5 M 0.5,35.5 V 18.5 m -7.36,-0.5 q -1.52,-5.5 0,-11 m 7.36,1 V 0.5 H 1
M 110.5,5.5 v 27 h -67 M 37.9,24.3 l 3.68,-2.1 M 191.5,5.5 v 27 h -31 M 154.9,24.3 l 3.68,-2.1"></path><g class="blocklyIconGroup" display="block" transform="translate(10,5)"><rect class="blocklyIconShape" rx="4" ry="4" height="16" width="16"></rect><path class="blocklyIconSymbol" d="m4.203,7.296 0,1.368 -0.92,0.677 -0.11,0.41 0.9,1.559 0.41,0.11 1.043,-0.457 1.187,0.683 0.127,1.134 0.3,0.3 1.8,0 0.3,-0.299 0.127,-1.138 1.185,-0.682 1.046,0.458 0.409,-0.11 0.9,-1.559 -0.11,-0.41 -0.92,-0.677 0,-1.366 0.92,-0.677 0.11,-0.41 -0.9,-1.559 -0.409,-0.109 -1.046,0.458 -1.185,-0.682 -0.127,-1.138 -0.3,-0.299 -1.8,0 -0.3,0.3 -0.126,1.135 -1.187,0.682 -1.043,-0.457 -0.41,0.11 -0.899,1.559 0.108,0.409z"></path><circle class="blocklyIconShape" r="2.7" cx="8" cy="8"></circle></g><g class="blocklyEditableText" style="cursor: default;" transform="translate(120,10)"><rect rx="4" ry="4" x="-5" y="0" height="16" width="34"></rect><text class="blocklyText" y="12.5" text-anchor="start" x="0">+<tspan style="fill: rgb(105, 38, 153);"> ▾</tspan></text></g><g data-id="r..VO8u=7Sg_T7R]C=87" class="blocklyDraggable" transform="translate(44,6)"><path class="blocklyPathDark" transform="translate(1,1)" fill="#2e1e7a" d="m 0,0 H 65 v 25 H 0 V 20 c 0,-10 -8,8 -8,-7.5 s 8,2.5 8,-7.5 z
"></path><path class="blocklyPath" fill="#392699" d="m 0,0 H 65 v 25 H 0 V 20 c 0,-10 -8,8 -8,-7.5 s 8,2.5 8,-7.5 z
"></path><path class="blocklyPathLight" stroke="#7467b8" d="m 0.5,0.5 H 64.5 M 64.5,0.5 M 0.5,24.5 V 18.5 m -7.36,-0.5 q -1.52,-5.5 0,-11 m 7.36,1 V 0.5 H 1
"></path><g class="blocklyEditableText" style="cursor: default;" transform="translate(10,5)"><rect rx="4" ry="4" x="-5" y="0" height="16" width="55"></rect><text class="blocklyText" y="12.5" text-anchor="start" x="0">item<tspan style="fill: rgb(57, 38, 153);"> ▾</tspan></text></g></g><g data-id="=mF(jXM}mM~:a5XiS_d/" class="blocklyDraggable" transform="translate(161,6)"><path class="blocklyPathDark" transform="translate(1,1)" fill="#1e547a" d="m 0,0 H 29 v 25 H 0 V 20 c 0,-10 -8,8 -8,-7.5 s 8,2.5 8,-7.5 z
"></path><path class="blocklyPath" fill="#266999" d="m 0,0 H 29 v 25 H 0 V 20 c 0,-10 -8,8 -8,-7.5 s 8,2.5 8,-7.5 z
"></path><path class="blocklyPathLight" stroke="#6796b8" d="m 0.5,0.5 H 28.5 M 28.5,0.5 M 0.5,24.5 V 18.5 m -7.36,-0.5 q -1.52,-5.5 0,-11 m 7.36,1 V 0.5 H 1
"></path><text class="blocklyText" y="12.5" style="display: none;"></text><text class="blocklyText" y="12.5" style="display: none;"></text><g class="blocklyEditableText" style="cursor: text;" transform="translate(10,5)"><rect rx="4" ry="4" x="-5" y="0" height="16" width="19"></rect><text class="blocklyText" y="12.5">1</text></g></g></g><text class="blocklyText" y="12.5" transform="translate(10,10)">array</text><g class="blocklyEditableText" style="cursor: default;" transform="translate(59,10)"><rect rx="4" ry="4" x="-5" y="0" height="16" width="44"></rect><text class="blocklyText" y="12.5" text-anchor="start" x="0">list<tspan style="fill: rgb(57, 38, 153);"> ▾</tspan></text></g><text class="blocklyText" y="12.5" transform="translate(103,10)">element</text></g><g data-id="=o/lcwd:FPlJ=f$)$To_" class="blocklyDraggable" transform="translate(0,59)"><path class="blocklyPathDark" transform="translate(1,1)" fill="#2e1e7a" d="m 0,0 H 15 l 6,4 3,0 6,-4 H 40 H 491 v 47 H 29.5 l -6,4 -3,0 -6,-4 H 8 a 8,8 0 0,1 -8,-8 z
M 382,5 h -203 v 5 c 0,10 -8,-8 -8,7.5 s 8,-2.5 8,7.5 v 18 h 203 z M 481,5 h -61 v 5 c 0,10 -8,-8 -8,7.5 s 8,-2.5 8,7.5 v 7 h 61 z"></path><path class="blocklyPath" fill="#392699" d="m 0,0 H 15 l 6,4 3,0 6,-4 H 40 H 491 v 47 H 29.5 l -6,4 -3,0 -6,-4 H 8 a 8,8 0 0,1 -8,-8 z
M 382,5 h -203 v 5 c 0,10 -8,-8 -8,7.5 s 8,-2.5 8,7.5 v 18 h 203 z M 481,5 h -61 v 5 c 0,10 -8,-8 -8,7.5 s 8,-2.5 8,7.5 v 7 h 61 z"></path><path class="blocklyPathLight" stroke="#7467b8" d="m 0.5,0.5 H 15 l 6,4 3,0 6,-4 H 39.5 M 39.5,0.5 H 490.5 M 2.6966991411008934,44.30330085889911 A 7.5,7.5 0 0,1 0.5,39 V 0.5
M 382.5,5.5 v 38 h -203 M 173.9,24.3 l 3.68,-2.1 M 481.5,5.5 v 27 h -61 M 414.9,24.3 l 3.68,-2.1"></path><text class="blocklyText" y="12.5" transform="translate(10,10)">array</text><g class="blocklyEditableText" style="cursor: default;" transform="translate(59,10)"><rect rx="4" ry="4" x="-5" y="0" height="16" width="44"></rect><text class="blocklyText" y="12.5" text-anchor="start" x="0">list<tspan style="fill: rgb(57, 38, 153);"> ▾</tspan></text></g><text class="blocklyText" y="12.5" transform="translate(103,10)">element</text><text class="blocklyText" y="12.5" transform="translate(392,10)">=</text><g data-id="c:IOZ:#SG165-bs.)MTQ" class="blocklyDraggable" transform="translate(180,6)"><path class="blocklyPathDark" transform="translate(1,1)" fill="#541e7a" d="m 0,0 H 47 H 201 v 36 H 0 V 20 c 0,-10 -8,8 -8,-7.5 s 8,2.5 8,-7.5 z
M 110,5 h -67 v 5 c 0,10 -8,-8 -8,7.5 s 8,-2.5 8,7.5 v 7 h 67 z M 191,5 h -31 v 5 c 0,10 -8,-8 -8,7.5 s 8,-2.5 8,7.5 v 7 h 31 z"></path><path class="blocklyPath" fill="#692699" d="m 0,0 H 47 H 201 v 36 H 0 V 20 c 0,-10 -8,8 -8,-7.5 s 8,2.5 8,-7.5 z
M 110,5 h -67 v 5 c 0,10 -8,-8 -8,7.5 s 8,-2.5 8,7.5 v 7 h 67 z M 191,5 h -31 v 5 c 0,10 -8,-8 -8,7.5 s 8,-2.5 8,7.5 v 7 h 31 z"></path><path class="blocklyPathLight" stroke="#9667b8" d="m 0.5,0.5 H 46.5 M 46.5,0.5 H 200.5 M 0.5,35.5 V 18.5 m -7.36,-0.5 q -1.52,-5.5 0,-11 m 7.36,1 V 0.5 H 1
M 110.5,5.5 v 27 h -67 M 37.9,24.3 l 3.68,-2.1 M 191.5,5.5 v 27 h -31 M 154.9,24.3 l 3.68,-2.1"></path><g class="blocklyIconGroup" display="block" transform="translate(10,5)"><rect class="blocklyIconShape" rx="4" ry="4" height="16" width="16"></rect><path class="blocklyIconSymbol" d="m4.203,7.296 0,1.368 -0.92,0.677 -0.11,0.41 0.9,1.559 0.41,0.11 1.043,-0.457 1.187,0.683 0.127,1.134 0.3,0.3 1.8,0 0.3,-0.299 0.127,-1.138 1.185,-0.682 1.046,0.458 0.409,-0.11 0.9,-1.559 -0.11,-0.41 -0.92,-0.677 0,-1.366 0.92,-0.677 0.11,-0.41 -0.9,-1.559 -0.409,-0.109 -1.046,0.458 -1.185,-0.682 -0.127,-1.138 -0.3,-0.299 -1.8,0 -0.3,0.3 -0.126,1.135 -1.187,0.682 -1.043,-0.457 -0.41,0.11 -0.899,1.559 0.108,0.409z"></path><circle class="blocklyIconShape" r="2.7" cx="8" cy="8"></circle></g><g class="blocklyEditableText" style="cursor: default;" transform="translate(120,10)"><rect rx="4" ry="4" x="-5" y="0" height="16" width="34"></rect><text class="blocklyText" y="12.5" text-anchor="start" x="0">+<tspan style="fill: rgb(105, 38, 153);"> ▾</tspan></text></g><g data-id="/!CyTk-leWn:19/fjPgD" class="blocklyDraggable" transform="translate(44,6)"><path class="blocklyPathDark" transform="translate(1,1)" fill="#2e1e7a" d="m 0,0 H 65 v 25 H 0 V 20 c 0,-10 -8,8 -8,-7.5 s 8,2.5 8,-7.5 z
"></path><path class="blocklyPath" fill="#392699" d="m 0,0 H 65 v 25 H 0 V 20 c 0,-10 -8,8 -8,-7.5 s 8,2.5 8,-7.5 z
"></path><path class="blocklyPathLight" stroke="#7467b8" d="m 0.5,0.5 H 64.5 M 64.5,0.5 M 0.5,24.5 V 18.5 m -7.36,-0.5 q -1.52,-5.5 0,-11 m 7.36,1 V 0.5 H 1
"></path><g class="blocklyEditableText" style="cursor: default;" transform="translate(10,5)"><rect rx="4" ry="4" x="-5" y="0" height="16" width="55"></rect><text class="blocklyText" y="12.5" text-anchor="start" x="0">item<tspan style="fill: rgb(57, 38, 153);"> ▾</tspan></text></g></g><g data-id="|4LutM6,byLYC%(.=%/+" class="blocklyDraggable" transform="translate(161,6)"><path class="blocklyPathDark" transform="translate(1,1)" fill="#1e547a" d="m 0,0 H 29 v 25 H 0 V 20 c 0,-10 -8,8 -8,-7.5 s 8,2.5 8,-7.5 z
"></path><path class="blocklyPath" fill="#266999" d="m 0,0 H 29 v 25 H 0 V 20 c 0,-10 -8,8 -8,-7.5 s 8,2.5 8,-7.5 z
"></path><path class="blocklyPathLight" stroke="#6796b8" d="m 0.5,0.5 H 28.5 M 28.5,0.5 M 0.5,24.5 V 18.5 m -7.36,-0.5 q -1.52,-5.5 0,-11 m 7.36,1 V 0.5 H 1
"></path><text class="blocklyText" y="12.5" style="display: none;"></text><text class="blocklyText" y="12.5" style="display: none;"></text><g class="blocklyEditableText" style="cursor: text;" transform="translate(10,5)"><rect rx="4" ry="4" x="-5" y="0" height="16" width="19"></rect><text class="blocklyText" y="12.5">1</text></g></g></g><g data-id="#BgB=/3DguTv*Y*ToDx," class="blocklyDraggable" transform="translate(421,6)"><path class="blocklyPathDark" transform="translate(1,1)" fill="#2e1e7a" d="m 0,0 H 59 v 25 H 0 V 20 c 0,-10 -8,8 -8,-7.5 s 8,2.5 8,-7.5 z
"></path><path class="blocklyPath" fill="#392699" d="m 0,0 H 59 v 25 H 0 V 20 c 0,-10 -8,8 -8,-7.5 s 8,2.5 8,-7.5 z
"></path><path class="blocklyPathLight" stroke="#7467b8" d="m 0.5,0.5 H 58.5 M 58.5,0.5 M 0.5,24.5 V 18.5 m -7.36,-0.5 q -1.52,-5.5 0,-11 m 7.36,1 V 0.5 H 1
"></path><g class="blocklyEditableText" style="cursor: default;" transform="translate(10,5)"><rect rx="4" ry="4" x="-5" y="0" height="16" width="49"></rect><text class="blocklyText" y="12.5" text-anchor="start" x="0">aux<tspan style="fill: rgb(57, 38, 153);"> ▾</tspan></text></g></g></g></g><g data-id="/A.4jkc4[T).fVEn*W?Z" class="blocklyDraggable" transform="translate(90,0)"><path class="blocklyPathDark" transform="translate(1,1)" fill="#2e1e7a" d="m 0,0 H 20 H 256 v 36 H 0 V 20 c 0,-10 -8,8 -8,-7.5 s 8,2.5 8,-7.5 z
M 246,5 h -67 v 5 c 0,10 -8,-8 -8,7.5 s 8,-2.5 8,7.5 v 7 h 67 z"></path><path class="blocklyPath" fill="#392699" d="m 0,0 H 20 H 256 v 36 H 0 V 20 c 0,-10 -8,8 -8,-7.5 s 8,2.5 8,-7.5 z
M 246,5 h -67 v 5 c 0,10 -8,-8 -8,7.5 s 8,-2.5 8,7.5 v 7 h 67 z"></path><path class="blocklyPathLight" stroke="#7467b8" d="m 0.5,0.5 H 19.5 M 19.5,0.5 H 255.5 M 0.5,35.5 V 18.5 m -7.36,-0.5 q -1.52,-5.5 0,-11 m 7.36,1 V 0.5 H 1
M 246.5,5.5 v 27 h -67 M 173.9,24.3 l 3.68,-2.1"></path><g data-id="$71P`//92ZepBcgfNY~G" class="blocklyDraggable" transform="translate(180,6)"><path class="blocklyPathDark" transform="translate(1,1)" fill="#2e1e7a" d="m 0,0 H 65 v 25 H 0 V 20 c 0,-10 -8,8 -8,-7.5 s 8,2.5 8,-7.5 z
"></path><path class="blocklyPath" fill="#392699" d="m 0,0 H 65 v 25 H 0 V 20 c 0,-10 -8,8 -8,-7.5 s 8,2.5 8,-7.5 z
"></path><path class="blocklyPathLight" stroke="#7467b8" d="m 0.5,0.5 H 64.5 M 64.5,0.5 M 0.5,24.5 V 18.5 m -7.36,-0.5 q -1.52,-5.5 0,-11 m 7.36,1 V 0.5 H 1
"></path><g class="blocklyEditableText" style="cursor: default;" transform="translate(10,5)"><rect rx="4" ry="4" x="-5" y="0" height="16" width="55"></rect><text class="blocklyText" y="12.5" text-anchor="start" x="0">item<tspan style="fill: rgb(57, 38, 153);"> ▾</tspan></text></g></g><text class="blocklyText" y="12.5" transform="translate(10,10)">array</text><g class="blocklyEditableText" style="cursor: default;" transform="translate(59,10)"><rect rx="4" ry="4" x="-5" y="0" height="16" width="44"></rect><text class="blocklyText" y="12.5" text-anchor="start" x="0">list<tspan style="fill: rgb(57, 38, 153);"> ▾</tspan></text></g><text class="blocklyText" y="12.5" transform="translate(103,10)">element</text></g></g></g></g><g data-id="eyGLOY1,jcjUW3;na-l," class="blocklyDraggable" transform="translate(0,329)"><path class="blocklyPathDark" transform="translate(1,1)" fill="#1e547a" d="m 0,0 H 15 l 6,4 3,0 6,-4 H 68 H 359 v 36 H 68 l -6,4 -3,0 -6,-4 h -7 a 8,8 0 0,0 -8,8 v 36 a 8,8 0 0,0 8,8 H 68 v 10 H 29.5 l -6,4 -3,0 -6,-4 H 8 a 8,8 0 0,1 -8,-8 z
M 175,5 h -31 v 5 c 0,10 -8,-8 -8,7.5 s 8,-2.5 8,7.5 v 7 h 31 z M 274,5 h -31 v 5 c 0,10 -8,-8 -8,7.5 s 8,-2.5 8,7.5 v 7 h 31 z M 349,5 h -31 v 5 c 0,10 -8,-8 -8,7.5 s 8,-2.5 8,7.5 v 7 h 31 z"></path><path class="blocklyPath" fill="#266999" d="m 0,0 H 15 l 6,4 3,0 6,-4 H 68 H 359 v 36 H 68 l -6,4 -3,0 -6,-4 h -7 a 8,8 0 0,0 -8,8 v 36 a 8,8 0 0,0 8,8 H 68 v 10 H 29.5 l -6,4 -3,0 -6,-4 H 8 a 8,8 0 0,1 -8,-8 z
M 175,5 h -31 v 5 c 0,10 -8,-8 -8,7.5 s 8,-2.5 8,7.5 v 7 h 31 z M 274,5 h -31 v 5 c 0,10 -8,-8 -8,7.5 s 8,-2.5 8,7.5 v 7 h 31 z M 349,5 h -31 v 5 c 0,10 -8,-8 -8,7.5 s 8,-2.5 8,7.5 v 7 h 31 z"></path><path class="blocklyPathLight" stroke="#6796b8" d="m 0.5,0.5 H 15 l 6,4 3,0 6,-4 H 67.5 M 67.5,0.5 H 358.5 M 67.5,36.5 M 39.98959235991435,86.01040764008566 a 8.5,8.5 0 0,0 6.0104076400856545,2.4895923599143455 H 67.5 M 2.6966991411008934,95.3033008588991 A 7.5,7.5 0 0,1 0.5,90 V 0.5
M 175.5,5.5 v 27 h -31 M 138.9,24.3 l 3.68,-2.1 M 274.5,5.5 v 27 h -31 M 237.9,24.3 l 3.68,-2.1 M 349.5,5.5 v 27 h -31 M 312.9,24.3 l 3.68,-2.1"></path><g data-id="8^nX.;)3v8=tw)z|Aijw" class="blocklyDraggable" transform="translate(319,6)"><path class="blocklyPathDark" transform="translate(1,1)" fill="#1e547a" d="m 0,0 H 29 v 25 H 0 V 20 c 0,-10 -8,8 -8,-7.5 s 8,2.5 8,-7.5 z
"></path><path class="blocklyPath" fill="#266999" d="m 0,0 H 29 v 25 H 0 V 20 c 0,-10 -8,8 -8,-7.5 s 8,2.5 8,-7.5 z
"></path><path class="blocklyPathLight" stroke="#6796b8" d="m 0.5,0.5 H 28.5 M 28.5,0.5 M 0.5,24.5 V 18.5 m -7.36,-0.5 q -1.52,-5.5 0,-11 m 7.36,1 V 0.5 H 1
"></path><text class="blocklyText" y="12.5" style="display: none;"></text><text class="blocklyText" y="12.5" style="display: none;"></text><g class="blocklyEditableText" style="cursor: text;" transform="translate(10,5)"><rect rx="4" ry="4" x="-5" y="0" height="16" width="19"></rect><text class="blocklyText" y="12.5">1</text></g></g><text class="blocklyText" y="12.5" transform="translate(10,10)">repeat</text><g class="blocklyEditableText" style="cursor: default;" transform="translate(68,10)"><rect rx="4" ry="4" x="-5" y="0" height="16" width="26"></rect><text class="blocklyText" y="12.5" text-anchor="start" x="0">j<tspan style="fill: rgb(38, 105, 153);"> ▾</tspan></text></g><text class="blocklyText" y="12.5" transform="translate(94,10)">from</text><g class="blocklyEditableText" style="cursor: default;" transform="translate(185,10)"><rect rx="4" ry="4" x="-5" y="0" height="16" width="52"></rect><text class="blocklyText" y="12.5" text-anchor="start" x="0">thru<tspan style="fill: rgb(38, 105, 153);"> ▾</tspan></text></g><text class="blocklyText" y="12.5" transform="translate(284,10)">by</text><text class="blocklyText" y="12.5" transform="translate(10,41)">do</text><g data-id="zG_}s#b3$bOCtwCJHX^E" class="blocklyDraggable" transform="translate(145,6)"><path class="blocklyPathDark" transform="translate(1,1)" fill="#1e547a" d="m 0,0 H 29 v 25 H 0 V 20 c 0,-10 -8,8 -8,-7.5 s 8,2.5 8,-7.5 z
"></path><path class="blocklyPath" fill="#266999" d="m 0,0 H 29 v 25 H 0 V 20 c 0,-10 -8,8 -8,-7.5 s 8,2.5 8,-7.5 z
"></path><path class="blocklyPathLight" stroke="#6796b8" d="m 0.5,0.5 H 28.5 M 28.5,0.5 M 0.5,24.5 V 18.5 m -7.36,-0.5 q -1.52,-5.5 0,-11 m 7.36,1 V 0.5 H 1
"></path><text class="blocklyText" y="12.5" style="display: none;"></text><text class="blocklyText" y="12.5" style="display: none;"></text><g class="blocklyEditableText" style="cursor: text;" transform="translate(10,5)"><rect rx="4" ry="4" x="-5" y="0" height="16" width="19"></rect><text class="blocklyText" y="12.5">0</text></g></g><g data-id="5+q)ZZ@Awe]p;m,zz{M)" class="blocklyDraggable" transform="translate(244,6)"><path class="blocklyPathDark" transform="translate(1,1)" fill="#1e547a" d="m 0,0 H 29 v 25 H 0 V 20 c 0,-10 -8,8 -8,-7.5 s 8,2.5 8,-7.5 z
"></path><path class="blocklyPath" fill="#266999" d="m 0,0 H 29 v 25 H 0 V 20 c 0,-10 -8,8 -8,-7.5 s 8,2.5 8,-7.5 z
"></path><path class="blocklyPathLight" stroke="#6796b8" d="m 0.5,0.5 H 28.5 M 28.5,0.5 M 0.5,24.5 V 18.5 m -7.36,-0.5 q -1.52,-5.5 0,-11 m 7.36,1 V 0.5 H 1
"></path><text class="blocklyText" y="12.5" style="display: none;"></text><text class="blocklyText" y="12.5" style="display: none;"></text><g class="blocklyEditableText" style="cursor: text;" transform="translate(10,5)"><rect rx="4" ry="4" x="-5" y="0" height="16" width="19"></rect><text class="blocklyText" y="12.5">9</text></g></g><g data-id="Y5-m$87GBP,1w8M.AN$9" class="blocklyDraggable" transform="translate(39,37)"><path class="blocklyPathDark" transform="translate(1,1)" fill="#7a1e3d" d="m 0,8 A 8,8 0 0,1 8,0 H 15 l 6,4 3,0 6,-4 H 40 H 673 v 47 H 29.5 l -6,4 -3,0 -6,-4 H 8 a 8,8 0 0,1 -8,-8 z
M 417,5 h -229 v 5 c 0,10 -8,-8 -8,7.5 s 8,-2.5 8,7.5 v 18 h 229 z"></path><path class="blocklyPath" fill="#99264c" d="m 0,8 A 8,8 0 0,1 8,0 H 15 l 6,4 3,0 6,-4 H 40 H 673 v 47 H 29.5 l -6,4 -3,0 -6,-4 H 8 a 8,8 0 0,1 -8,-8 z
M 417,5 h -229 v 5 c 0,10 -8,-8 -8,7.5 s 8,-2.5 8,7.5 v 18 h 229 z"></path><path class="blocklyPathLight" stroke="#b86782" d="m 0.5,7.5 A 7.5,7.5 0 0,1 8,0.5 H 15 l 6,4 3,0 6,-4 H 39.5 M 39.5,0.5 H 672.5 M 2.6966991411008934,44.30330085889911 A 7.5,7.5 0 0,1 0.5,39 V 8
M 417.5,5.5 v 38 h -229 M 182.9,24.3 l 3.68,-2.1"></path><text class="blocklyText" y="12.5" transform="translate(10,10)">Terminal print number</text><text class="blocklyText" y="12.5" transform="translate(427,10)">as</text><g class="blocklyEditableText" style="cursor: default;" transform="translate(454,10)"><rect rx="4" ry="4" x="-5" y="0" height="16" width="81"></rect><text class="blocklyText" y="12.5" text-anchor="start" x="0">Decimal<tspan style="fill: rgb(153, 38, 76);"> ▾</tspan></text></g><text class="blocklyText" y="12.5" transform="translate(535,10)">then a new line</text><g class="blocklyEditableText" style="cursor: default;" transform="translate(658,10)"><rect rx="4" ry="4" x="-5" y="0" height="16" width="15"></rect><text class="blocklyText" y="12.5"> </text><text class="blocklyText blocklyCheckbox" x="-3" y="14" style="display: block;">✓</text></g><g data-id="?n.D]eI5a?U3G@|!L/*U" class="blocklyDraggable" transform="translate(189,6)"><path class="blocklyPathDark" transform="translate(1,1)" fill="#2e1e7a" d="m 0,0 H 20 H 227 v 36 H 0 V 20 c 0,-10 -8,8 -8,-7.5 s 8,2.5 8,-7.5 z
M 217,5 h -38 v 5 c 0,10 -8,-8 -8,7.5 s 8,-2.5 8,7.5 v 7 h 38 z"></path><path class="blocklyPath" fill="#392699" d="m 0,0 H 20 H 227 v 36 H 0 V 20 c 0,-10 -8,8 -8,-7.5 s 8,2.5 8,-7.5 z
M 217,5 h -38 v 5 c 0,10 -8,-8 -8,7.5 s 8,-2.5 8,7.5 v 7 h 38 z"></path><path class="blocklyPathLight" stroke="#7467b8" d="m 0.5,0.5 H 19.5 M 19.5,0.5 H 226.5 M 0.5,35.5 V 18.5 m -7.36,-0.5 q -1.52,-5.5 0,-11 m 7.36,1 V 0.5 H 1
M 217.5,5.5 v 27 h -38 M 173.9,24.3 l 3.68,-2.1"></path><text class="blocklyText" y="12.5" transform="translate(10,10)">array</text><g class="blocklyEditableText" style="cursor: default;" transform="translate(59,10)"><rect rx="4" ry="4" x="-5" y="0" height="16" width="44"></rect><text class="blocklyText" y="12.5" text-anchor="start" x="0">list<tspan style="fill: rgb(57, 38, 153);"> ▾</tspan></text></g><text class="blocklyText" y="12.5" transform="translate(103,10)">element</text><g data-id="Bk]V:K~KX?DW}YMU5rf1" class="blocklyDraggable" transform="translate(180,6)"><path class="blocklyPathDark" transform="translate(1,1)" fill="#2e1e7a" d="m 0,0 H 36 v 25 H 0 V 20 c 0,-10 -8,8 -8,-7.5 s 8,2.5 8,-7.5 z
"></path><path class="blocklyPath" fill="#392699" d="m 0,0 H 36 v 25 H 0 V 20 c 0,-10 -8,8 -8,-7.5 s 8,2.5 8,-7.5 z
"></path><path class="blocklyPathLight" stroke="#7467b8" d="m 0.5,0.5 H 35.5 M 35.5,0.5 M 0.5,24.5 V 18.5 m -7.36,-0.5 q -1.52,-5.5 0,-11 m 7.36,1 V 0.5 H 1
"></path><g class="blocklyEditableText" style="cursor: default;" transform="translate(10,5)"><rect rx="4" ry="4" x="-5" y="0" height="16" width="26"></rect><text class="blocklyText" y="12.5" text-anchor="start" x="0">j<tspan style="fill: rgb(57, 38, 153);"> ▾</tspan></text></g></g></g></g></g></g></g></g></g><rect x="100%" y="100%" rx="7" ry="7" width="218" height="84" style="fill:rgba(255,255,255,0.4);" transform="translate(-232,-100)" /><text class="bkginfo" x="100%" y="100%" transform="translate(-225,-83)" style="font-weight:bold;">Parallax BlocklyProp Project</text><text class="bkginfo" x="100%" y="100%" transform="translate(-225,-68)">User: offline</text><text class="bkginfo" x="100%" y="100%" transform="translate(-225,-53)">Title: tst</text><text class="bkginfo" x="100%" y="100%" transform="translate(-225,-38)">Project ID: 0</text><text class="bkginfo" x="100%" y="100%" transform="translate(-225,-23)">Device: other</text><text class="bkginfo" x="100%" y="100%" transform="translate(-225,-8)">Description: tst</text><text class="bkginfo" x="100%" y="100%" transform="translate(-225,13)" data-createdon="Mon Oct 21 2019 21:35:18 GMT-0300 (Brasilia Standard Time)" data-lastmodified="Mon Oct 21 2019 21:42:33 GMT-0300 (Brasilia Standard Time)"></text><variables><variable type="" id="dblB,abLT{=u^snxW;iu">j</variable><variable type="" id="hIVLi5-#mH[[J#MwO5gZ">item</variable><variable type="" id=";RT!U6Z^Ph8{0T-fl,ZZ">aux</variable></variables><block type="array_init" id="zPo^n=3XKj]$^b_a|eJe" x="-36" y="156"><field name="VAR">list</field><field name="NUM">10</field><next><block type="array_fill" id="Z|d2!wI}wvTy|zYPcsGk"><field name="VAR">list</field><field name="NUM">10,4,5,9,10,45,5,4,6,7</field><next><block type="control_repeat_for_loop" id="C_glAM4f-Yht=]97l-ZW"><field name="VAR" id="dblB,abLT{=u^snxW;iu" variabletype="">j</field><field name="EQ">= </field><value name="START"><block type="math_number" id="`,qJ3tq{*!XsGDS/9ju?"><field name="NUM">9</field></block></value><value name="END"><block type="math_number" id="ri*moAI60*?~KgaKnCWJ"><field name="NUM">0</field></block></value><value name="STEP"><block type="math_number" id="#q{;XXnuV^D$uJJ9xry9"><field name="NUM">-1</field></block></value><statement name="DO"><block type="control_repeat_for_loop" id="xI[;cUzen45)EvmZXpDU"><field name="VAR" id="hIVLi5-#mH[[J#MwO5gZ" variabletype="">item</field><field name="EQ">= </field><value name="START"><block type="math_number" id="EAD{T%Fk;7=XRD6zF_e7"><field name="NUM">0</field></block></value><value name="END"><block type="logic_compare" id="BW]NHQf115?ZrU}l?WMF"><field name="OP">&lt;</field><value name="A"><block type="variables_get" id="l#Wbe6RDH$H$8=],J;PX"><field name="VAR" id="hIVLi5-#mH[[J#MwO5gZ" variabletype="">item</field></block></value><value name="B"><block type="variables_get" id="{-X#WRqW_c.n7/X;#/)t"><field name="VAR" id="dblB,abLT{=u^snxW;iu" variabletype="">j</field></block></value></block></value><value name="STEP"><block type="math_number" id="]p?{Q?Gh$Xd|$gJl*@9|"><field name="NUM">1</field></block></value><statement name="DO"><block type="controls_if" id="B~)G0jkG13LrtUk7HeqU"><value name="IF0"><block type="logic_compare" id="H+PC|y%PXd;)81_2KL7*"><field name="OP">==</field><value name="A"><block type="array_get" id="[hZ;N*cNTiq5iIo|TyWg"><field name="VAR">list</field><value name="NUM"><block type="variables_get" id="HaCM51?2]`JIZC4;BY.4"><field name="VAR" id="hIVLi5-#mH[[J#MwO5gZ" variabletype="">item</field></block></value></block></value><value name="B"><block type="array_get" id="TkHS_x?Q;BK{l(k8yj^R"><field name="VAR">list</field><value name="NUM"><block type="math_arithmetic" id="pheXTLm4AZ)bGItpbS!z"><mutation terms="B"></mutation><field name="OP"> + </field><value name="A"><block type="variables_get" id="5Z8UsyI|7)OX)b*V+HMZ"><field name="VAR" id="hIVLi5-#mH[[J#MwO5gZ" variabletype="">item</field></block></value><value name="B"><block type="math_number" id="9u*@3e*c{fm[!z~o;!ZM"><field name="NUM">1</field></block></value></block></value></block></value></block></value><statement name="DO0"><block type="variables_set" id="M{gsIEKBRqbfH(w@@GRQ"><field name="VAR" id=";RT!U6Z^Ph8{0T-fl,ZZ" variabletype="">aux</field><value name="VALUE"><block type="array_get" id="/A.4jkc4[T).fVEn*W?Z"><field name="VAR">list</field><value name="NUM"><block type="variables_get" id="$71P`//92ZepBcgfNY~G"><field name="VAR" id="hIVLi5-#mH[[J#MwO5gZ" variabletype="">item</field></block></value></block></value><next><block type="array_set" id="Ry2gg=p/pPlu4$Xdc=t^"><field name="VAR">list</field><value name="NUM"><block type="variables_get" id="3^GU,b4)sXy`f^8;c0E9"><field name="VAR" id="hIVLi5-#mH[[J#MwO5gZ" variabletype="">item</field></block></value><value name="VALUE"><block type="array_get" id="/hGu?_)Q#omoX_!Tb(o6"><field name="VAR">list</field><value name="NUM"><block type="math_arithmetic" id="O]Kvn#[^iV0Hgi9CTAj9"><mutation terms="B"></mutation><field name="OP"> + </field><value name="A"><block type="variables_get" id="r..VO8u=7Sg_T7R]C=87"><field name="VAR" id="hIVLi5-#mH[[J#MwO5gZ" variabletype="">item</field></block></value><value name="B"><block type="math_number" id="=mF(jXM}mM~:a5XiS_d/"><field name="NUM">1</field></block></value></block></value></block></value><next><block type="array_set" id="=o/lcwd:FPlJ=f$)$To_"><field name="VAR">list</field><value name="NUM"><block type="math_arithmetic" id="c:IOZ:#SG165-bs.)MTQ"><mutation terms="B"></mutation><field name="OP"> + </field><value name="A"><block type="variables_get" id="/!CyTk-leWn:19/fjPgD"><field name="VAR" id="hIVLi5-#mH[[J#MwO5gZ" variabletype="">item</field></block></value><value name="B"><block type="math_number" id="|4LutM6,byLYC%(.=%/+"><field name="NUM">1</field></block></value></block></value><value name="VALUE"><block type="variables_get" id="#BgB=/3DguTv*Y*ToDx,"><field name="VAR" id=";RT!U6Z^Ph8{0T-fl,ZZ" variabletype="">aux</field></block></value></block></next></block></next></block></statement></block></statement></block></statement><next><block type="control_repeat_for_loop" id="eyGLOY1,jcjUW3;na-l,"><field name="VAR" id="dblB,abLT{=u^snxW;iu" variabletype="">j</field><field name="EQ">= </field><value name="START"><block type="math_number" id="zG_}s#b3$bOCtwCJHX^E"><field name="NUM">0</field></block></value><value name="END"><block type="math_number" id="5+q)ZZ@Awe]p;m,zz{M)"><field name="NUM">9</field></block></value><value name="STEP"><block type="math_number" id="8^nX.;)3v8=tw)z|Aijw"><field name="NUM">1</field></block></value><statement name="DO"><block type="console_print_variables" id="Y5-m$87GBP,1w8M.AN$9"><field name="FORMAT">DEC</field><field name="ck_nl">TRUE</field><value name="VALUE"><block type="array_get" id="?n.D]eI5a?U3G@|!L/*U"><field name="VAR">list</field><value name="NUM"><block type="variables_get" id="Bk]V:K~KX?DW}YMU5rf1"><field name="VAR" id="dblB,abLT{=u^snxW;iu" variabletype="">j</field></block></value></block></value></block></statement></block></next></block></next></block></next></block><ckm>002314537034</ckm></svg>